<svg xmlns="http://www.w3.org/2000/svg" xmlns:xlink="http://www.w3.org/1999/xlink" version="1.1" baseProfile="tiny" id="Layer_2" x="0" y="0" width="141" height="85" viewBox="0 0 141 85" xml:space="preserve" overflow="hidden">
  <path fill="#644A3C" d="M138.12 57.23L2.32 57.22V11.45h50.7c3.15-6.6 9.88-10.85 17.2-10.85 7.32 0 14.04 4.25 17.2 10.85h50.7V57.23zM3.05 56.49l134.33 0.01V12.19H86.95l-0.1-0.21C83.86 5.51 77.33 1.33 70.22 1.33c-7.12 0-13.65 4.18-16.64 10.64l-0.1 0.21H3.05V56.49zM6.51 15.1v38.38h38.15V15.1H6.51zM43.34 52.35H7.8V16.22h35.54V52.35zM84.94 15.1C82.91 8.9 77.08 4.41 70.2 4.41c-6.88 0-12.71 4.49-14.74 10.69h-6.98v38.38h43.47V15.1H84.94zM90.78 52.35H49.65V16.22h6.77c1.71-6.09 7.14-10.62 13.78-10.62 6.64 0 12.1 4.52 13.81 10.62h6.77V52.35zM82.4 25.83c-0.11-0.05-0.05-0.01-0.35-0.12 -0.29-0.11-0.56-0.46-0.77-0.63 -0.01-0.01-0.03-0.03-0.06-0.06 -0.01 0-0.01 0 0 0.01 -0.22 0.72-0.17 0.83-0.11 1.22 0.06 0.4 0.04 0.93 0.46 1.15 0.04 0.02 0.11 0.11 0.22 0.04 0.14-0.09 0.29-0.25 0.42-0.35 0.49-0.37 0.25-0.16 0.59-0.62 0 0 0.07-0.08-0.01-0.28C82.7 25.97 82.7 25.97 82.4 25.83zM85.79 32.27c1.88-1.04 3.15-3.04 3.15-5.34 0-3.36-2.73-6.1-6.1-6.1s-6.1 2.74-6.1 6.1c0 2.3 1.28 4.31 3.17 5.35 -0.31-0.03-0.59-0.09-0.79-0.23 -0.45-0.3-1-0.8-1.83-0.44 -0.54 0.23-0.47 0.91-1.2 0.9 -0.26 0-0.33-0.55-0.43-0.64 -0.26-0.24-0.66 0.3-0.97 0.03 -0.31-0.27-0.24-0.54-0.39-0.93 -0.5-1.32-1.36-1.66-2.16-2.74 -0.31-0.41-0.33-0.5-0.35-0.87 -0.01-0.07-0.46-0.21-0.68-0.44 -0.24-0.26-0.5-0.59-0.57-0.75 -0.52-1.1-0.85-1.57-0.73-2.19 0.07-0.37 0.12-0.33 0.86-0.95 0.35-0.29-0.12-0.49 0.65-0.42 0.65 0.06 1.29-1.25 1.64-2.41 0 0 0.51 0.02 0.56-0.42 -0.18-0.63-0.44-0.17-0.86-0.5 -0.91-0.73-0.84-0.86-2.93-1.55 -0.52-0.17-0.39-1.24-1.12-1.6 -1.19-0.6-0.65-0.89-1.67-1.54 -0.3-0.19-2.8-0.71-4.11-0.12 -0.58-0.05-0.09 0-0.23 0.01 -0.04 0-0.25-0.06-0.27-0.09 -0.53-0.55-2.33-0.62-2.48 0.45 -0.17 1.19 0.56 1.43 0.32 1.62 -0.63 0.5-0.83 0.5-1.66 2.86 -0.38 1.1 0.49 1.23-0.34 3.01 -0.45 0.95-0.84 2.25-0.67 2.5 0.16 0.24 0 0.33 0.11 0.57 -0.26 1.21-0.33 2.3-0.15 3.27 0.8 1.8 0.35 5.08 0.85 5.58 0.23 0.24-0.08 0.5-0.08 0.54 -0.09 0.57-0.12 0.5-0.12 0.5 -0.01 0.04 0.04 0.55 0.04 0.6 -0.12 0.75 0.13 1.16 0.16 1.72 0.05 0.99 0.08 0.97 0.32 1.44 0.39 0.77 0.82 1.67 1.3 2.24 0.6 0.72 1.03-0.03 0.09 1.54 -0.54 0.92-0.85 0.58-1.4 1.37 -0.24 0.35-1.36 0.45-1.49 1.2 -0.15 0.87 0.13 1.22 0.88 1.58 0.41 0.19 0.55 0.9 0.7 1.75 0.02 0.11 0.12 0.25 0.24 0.35 0.76 0.61 1.25 0.82 2.2 0.61 0.02-0.2 0.59-0.24 0.59-0.24 0.13-0.14 0.59 0.17 0.81-0.08 0.52-0.57 0.07-0.8-0.41-0.99 -0.25-0.1-0.6-1.17-0.36-1.28 0.7-0.3 0.36 0.31 1.53-0.08 0.81-0.26 0.75-0.08 1.62-0.59 0.46-0.27 0.59-1.09 1.51-0.77 0.48 0.55 2.13 0.08 2.61 0.4 1.53-0.15 0.73 0.52 2.19 0.92 1.46 0.41 1.37 0.03 1.71 0.79 0.55 1.22 2.14 1.71 2.59 1.4 1.04-0.69 2.11-1.5 2.79-1.92 0.42-0.26 1.3-1.69 0.9-2.54 -0.77 0.18-0.99 0.83-1.57 0.8 -0.56-0.02-1.44-0.17-1.4-0.63 0.15-1.72-0.22-1.79-1.34-3.68 -0.15-0.25-0.71-0.5-0.89-0.8 -0.25-0.41 0.28-1.07 0.54-1.57 1.13-2.13-0.24-3.02 0.84-3.04 0.89-0.01 0.35-0.01 0.7-0.06 0.3-0.04 0.45-1.13 0.45-1.13l0.31-0.5c0.91 0.28 1.69 0.39 2.19-0.42 0.5 0.77 0.27 0.58 0.72 1.21 1.04 0.05 2.08 0.06 3.11 0.01 1.03-0.05 2.11 0.17 3.1 0.02 0.82-0.12 1.43-1.94 1.83-2.62C87.91 32.05 86.88 32.19 85.79 32.27zM77.91 33.69c-0.47 0-0.71-0.39-0.71-0.71 0-0.47 0.24-0.71 0.71-0.71 0.47 0 0.93 0.24 0.93 0.71C78.84 33.44 78.37 33.69 77.91 33.69zM84.79 32.33c-0.45 0.01-0.84-0.02-1.09-0.12 -0.76-0.3 0.66-1.03 0.03-1.27 -0.59-0.22 0.01-2.65-0.43-3.46 -0.25-0.45-0.9 0.67-1.62 0.85 -0.22 0.27 0.41 2.15-0.4 2.63 -0.37 0.22 0.7 1.29 0.17 1.32 -0.22 0.01-0.42 0.02-0.62 0.03 -0.73-0.28-1.41-0.71-1.98-1.28 -1.07-1.07-1.65-2.49-1.65-4 0-1.51 0.59-2.93 1.66-4 1.07-1.07 2.49-1.66 4-1.66 1.51 0 2.93 0.59 4 1.66 1.07 1.07 1.66 2.49 1.66 4C88.5 29.46 86.95 31.53 84.79 32.33zM15.95 32.73c0-5.84 3.53-11.94 9.93-11.94 0.17 0 0.34 0.01 0.51 0.01 4.8 0.25 8.45 3.92 10.56 7.96 0.3 0.57 0.61 1.48 1.31 1.48 0.01 0 0.01 0 0.02 0 0.72-0.02 0.55-1 0.5-1.44l-0.78-8.28c0-0.07-0.04-0.12-0.09-0.16 -0.11-0.08-0.29-0.1-0.44-0.1 -0.61 0-0.65 1.44-1.48 1.44 -1.38 0-4.38-2.65-9.93-2.65 -10.98 0-15.46 9.63-15.46 16.95 0 3.44 1.96 14.59 14.73 14.59 0.19 0 0.38-0.01 0.57-0.01 0.23-0.01 0.46-0.02 0.69-0.04 8.44-0.56 12.64-6.61 12.64-8.27 0-0.26-0.39-0.48-0.61-0.48 -1.1 0-3.94 5.4-10.31 5.69 -0.18 0.01-0.35 0.01-0.53 0.01C19.44 47.5 15.95 38.87 15.95 32.73L15.95 32.73zM95.77 15.1v38.38h38.16V15.1H95.77zM132.8 52.35H96.93V16.22h35.87V52.35zM128.27 27.78c0-6.08-4.94-8.34-10.24-8.45 -0.24-0.01-0.49-0.01-0.74-0.01 -2.82 0.04-5.64 0.15-6.57 0.17 -0.09 0-0.17 0.01-0.22 0.01 -2.49 0-4.46-0.1-5.42-0.15 -0.32-0.02-0.52-0.03-0.6-0.03 -1.04 0-1.22 0.57-1.22 0.83 0 1.61 4.53-0.17 4.53 4.44v19.17c0 5.45-3.49 4.49-3.49 5.75 0 0.74 0.79 0.65 0.91 0.65 0.06 0 0.27-0.01 0.56-0.02 1.08-0.05 3.43-0.15 4.8-0.15 0.1 0 0.22 0 0.35 0 1.04 0.03 2.86 0.17 5.58 0.17 0.38 0 0.69 0.04 0.88-0.12 0.11-0.09 0.17-0.25 0.17-0.53 0-1.52-4.4 0.13-4.4-5.31V23.99c0-1.96 0.69-2.83 2.66-2.83 0.19 0 0.37 0.01 0.55 0.02 6.23 0.33 6.6 6.37 6.56 7.48 -0.04 1.09-0.41 5.72-5.18 6.04 -0.17 0.01-0.34 0.02-0.52 0.02 -0.56 0-1.05-0.09-1.42-0.16 -0.27-0.05-0.48-0.1-0.63-0.1 -0.52 0-0.61 0.52-0.61 0.83 0 0.18 0.22 1.26 4.49 1.26 0.13 0 0.26-0.01 0.39-0.01C124.42 36.37 128.27 33.09 128.27 27.78L128.27 27.78zM7.93 60.93c3.25 0 4.15 1.33 4.64 1.33 0.14 0 0.24-0.17 0.42-0.17 0.19 0 0.19 0.28 0.24 1.4 0.04 0.91 0.19 1.48-0.1 1.48 -0.21 0-0.33-0.45-0.4-0.57 -1.07-1.85-2.3-2.97-4.53-2.97 -3.37 0-4.99 2.24-4.99 5.46 0 3.01 1.73 6.01 5.04 6.01 2.71 0 4.4-1.73 4.66-2.52 0.03-0.12 0.14-0.23 0.24-0.23 0.09 0 0.17 0.1 0.16 0.19l-0.4 1.73c-0.02 0.07-1.24 1.37-5.13 1.37 -3.54 0-6.08-2.44-6.08-6.01C1.71 63.85 4.29 60.93 7.93 60.93zM16.55 70.5c-0.19 0-0.31 0.12-0.45 0.38 -0.48 0.92-0.57 1.17-0.57 1.35 0 0.43 0.36 0.66 0.92 0.71 0.29 0.02 0.43 0.05 0.43 0.21 0 0.1-0.07 0.17-0.24 0.17 -0.36 0-0.85-0.07-1.45-0.07 -0.48 0-1.14 0.07-1.4 0.07 -0.1 0-0.15-0.02-0.15-0.12 0-0.24 0.69-0.16 1.26-1.3 1.64-3.28 2.97-5.44 3.37-6.13 0.14-0.24 0.21-0.36 0.29-0.36 0.12 0 0.14 0.12 0.21 0.26 0.83 1.64 2.14 4.66 2.9 6.46 0.36 0.86 1.38 0.73 1.38 1 0 0.14-0.14 0.19-0.41 0.19 -0.33 0-0.85-0.07-1.31-0.07 -0.57 0-1.17 0.07-1.71 0.07 -0.14 0-0.19-0.05-0.19-0.17 0-0.33 0.9-0.12 0.9-0.91 0-0.22-0.09-0.46-0.52-1.33 -0.14-0.28-0.21-0.4-0.45-0.4H16.55zM18.33 67.75c-0.15-0.31-0.19-0.43-0.24-0.43 -0.08 0-0.1 0.14-0.21 0.33l-0.95 1.76c-0.07 0.14-0.16 0.26-0.16 0.33 0 0.07 0.05 0.1 0.12 0.1h2.3c0.07 0 0.12-0.03 0.12-0.1 0-0.07-0.08-0.19-0.15-0.33L18.33 67.75zM31.48 67.13c0-1.5-1.55-1.07-1.55-1.5 0-0.1 0.14-0.15 0.26-0.15 0.4 0 0.97 0.07 1.45 0.07 0.64 0 1.09-0.07 1.43-0.07 0.14 0 0.19 0.09 0.19 0.17 0 0.35-1.14 0-1.14 1.35v6.1c0 0.21-0.07 0.29-0.29 0.29 -0.14 0-0.26-0.07-0.55-0.38l-5.32-5.75 -0.1 0.02v4.68c0 1.24 1.47 0.73 1.47 1.24 0 0.1-0.12 0.12-0.31 0.12 -0.48 0-1.02-0.07-1.47-0.07 -0.47 0-0.93 0.07-1.35 0.07 -0.14 0-0.24-0.05-0.24-0.15 0-0.48 1.19 0 1.19-1.81v-4.35c0-1.38-1.5-0.98-1.5-1.4 0-0.07 0.09-0.12 0.27-0.12 0.21 0 0.45 0.07 0.88 0.07 0.36 0 0.6-0.07 0.91-0.07 0.24 0 0.42 0.09 0.57 0.26l5.08 5.54 0.12-0.07V67.13zM35.64 66.85c0-1.16-1.16-0.84-1.16-1.23 0-0.12 0.1-0.15 0.28-0.15 0.12 0 0.28 0.02 0.48 0.04 0.19 0.02 0.43 0.03 0.67 0.03 0.43 0 0.9-0.03 1.38-0.07 0.5-0.04 1.02-0.07 1.52-0.07 3.28 0 4.16 2.54 4.16 3.84 0 2.69-2.12 4.08-4.28 4.08 -0.67 0-1.36-0.07-2.04-0.07 -0.78 0-1.5 0.07-1.78 0.07 -0.09 0-0.14-0.04-0.14-0.09 0-0.31 0.9-0.15 0.9-1.25V66.85zM36.9 72.47c0 0.4 0.5 0.47 1.45 0.47 2.44 0 3.37-1.24 3.37-3.21 0-1.73-0.86-3.94-3.52-3.94 -0.85 0-1.3 0.09-1.3 0.54V72.47zM45.58 66.67c0-0.91-1.24-0.61-1.24-0.98 0-0.14 0.09-0.21 0.21-0.21 0.43 0 0.92 0.07 1.62 0.07 0.74 0 1.21-0.07 1.52-0.07 0.09 0 0.19 0.07 0.19 0.17 0 0.31-1.03 0.19-1.03 1.12v5.52c0 0.42 0.21 0.5 1.19 0.5 2.47 0 2.75-1.31 2.99-1.31 0.09 0 0.18 0.09 0.18 0.26 0 1.64-1.42 1.62-2.12 1.62 -0.33 0-0.76-0.02-1.17-0.05 -0.43-0.04-0.86-0.07-1.19-0.07 -0.41 0-0.78 0.02-1.05 0.03 -0.29 0.02-0.5 0.04-0.67 0.04 -0.24 0-0.34-0.02-0.34-0.14 0-0.33 0.95-0.16 0.95-1.02V66.67zM54.2 72.04c0 0.52 0.4 0.69 1.35 0.69 2.35 0 2.73-1.28 2.95-1.28 0.09 0 0.12 0.09 0.12 0.19 0 0.21-0.21 0.93-0.71 1.35 -0.31 0.26-0.57 0.33-1.33 0.33 -0.64 0-1.29-0.07-2.12-0.07 -0.81 0-1.71 0.07-2.29 0.07 -0.17 0-0.33-0.05-0.33-0.15 0-0.38 1.1 0 1.1-1.09v-5.34c0-1-1.16-0.72-1.16-1.09 0-0.12 0.11-0.17 0.28-0.17 0.71 0 1.81 0.07 2.88 0.07 1.21 0 2.73-0.07 2.94-0.07 0.1 0 0.17 0.1 0.17 0.17 0 0.21-0.02 0.49-0.02 1.5 0 0.21-0.07 0.27-0.19 0.27 -0.14 0-0.19-0.29-0.22-0.5 -0.1-0.62-0.74-0.86-2.06-0.86 -0.9 0-1.36 0-1.36 0.5v2.33h1.59c1.24 0 0.93-1 1.31-1 0.12 0 0.19 0.09 0.19 0.19 0 0.21-0.05 0.55-0.05 0.92 0 0.53 0.03 1.02 0.03 1.47 0 0.19-0.07 0.26-0.23 0.26 -0.33 0-0.03-1.19-1.23-1.19h-1.62V72.04zM60.59 66.68c-0.4-0.97-1.07-0.85-1.07-1.09 0-0.07 0.09-0.12 0.19-0.12 0.35 0 0.98 0.07 1.38 0.07 0.4 0 0.78-0.07 1.19-0.07 0.09 0 0.12 0.12 0.12 0.19 0 0.17-0.64 0.16-0.64 0.59 0 0.31 0.28 0.97 1.69 4.41 0.28 0.66 0.31 0.83 0.38 0.83 0.07 0 0.09-0.09 0.29-0.48l0.8-1.67c0.19-0.4 0.21-0.48 0.21-0.62 0-0.14-0.05-0.32-0.31-0.91l-0.52-1.16c-0.4-1-1.05-0.81-1.05-1.02 0-0.05 0.04-0.14 0.14-0.14 0.41 0 0.92 0.07 1.38 0.07 0.45 0 0.95-0.07 1.21-0.07 0.1 0 0.21 0.05 0.21 0.19 0 0.28-0.73 0.04-0.73 0.57 0 0.26 0.12 0.55 1.62 4.13 0.43 1.05 0.45 1.17 0.52 1.17 0.05 0 0.09-0.07 0.28-0.5 0.73-1.64 1.67-3.87 1.67-4.45 0-0.78-0.85-0.54-0.85-0.86 0-0.12 0.04-0.24 0.23-0.24 0.23 0 0.76 0.07 1.16 0.07 0.36 0 0.83-0.07 0.98-0.07 0.12 0 0.21 0.05 0.21 0.16 0 0.31-0.53 0-1.12 1.33l-2.33 5.39c-0.31 0.74-0.34 1.04-0.53 1.04 -0.17 0-0.19-0.14-0.73-1.43 -1.04-2.5-1.04-2.56-1.1-2.56 -0.07 0-0.08 0.04-0.45 0.83 -0.48 1.02-1.09 2.21-1.35 2.97 -0.03 0.1-0.1 0.19-0.23 0.19 -0.12 0-0.17-0.15-0.33-0.52L60.59 66.68zM73.48 66.6c0-0.92-1.33-0.66-1.33-0.97 0-0.09 0.05-0.15 0.24-0.15 0.47 0 1 0.07 1.54 0.07 0.55 0 1.16-0.07 1.67-0.07 0.1 0 0.17 0.05 0.17 0.14 0 0.45-1.04 0.05-1.04 0.88v5.7c0 0.92 1.35 0.66 1.35 0.97 0 0.09-0.05 0.16-0.24 0.16 -0.47 0-1-0.07-1.54-0.07 -0.55 0-1.16 0.07-1.68 0.07 -0.1 0-0.17-0.05-0.17-0.14 0-0.45 1.02-0.05 1.02-0.88V66.6zM81.39 72.8c1.31 0 2.26-0.73 2.61-1.12 0.09-0.1 0.15-0.21 0.3-0.21 0.07 0 0.15 0.05 0.15 0.18 0 0.24-1.26 1.74-3.56 1.74 -2.35 0-3.82-1.54-3.82-3.78 0-2.45 2-4.2 4.34-4.2 0.5 0 1 0.16 1.43 0.29 0.43 0.15 0.78 0.31 0.93 0.31 0.28 0 0.48-0.21 0.53-0.21 0.09 0 0.12 0.05 0.12 0.31 0 0.79 0.14 1.9 0.14 2.14 0 0.14-0.07 0.21-0.19 0.21 -0.14 0-0.19-0.1-0.33-0.5 -0.38-1.07-1.28-2.18-2.76-2.18 -1.92 0-2.95 1.52-2.95 3.34C78.33 71.93 80.04 72.8 81.39 72.8zM92.71 72.47c0.5 0.66 1.16 0.3 1.16 0.67 0 0.1-0.12 0.17-0.24 0.17 -0.19 0-0.34-0.07-0.72-0.07 -0.38 0-0.62 0.07-0.81 0.07 -0.17 0-0.24-0.05-0.33-0.15l-2.83-3.8 -0.64 0.57v2.33c0 0.93 1.24 0.59 1.24 0.95 0 0.09-0.07 0.1-0.17 0.1 -0.48 0-1.16-0.07-1.69-0.07 -0.45 0-0.95 0.07-1.36 0.07 -0.14 0-0.28-0.02-0.28-0.17 0-0.4 1-0.09 1-1.12V66.77c0-1.12-1.12-0.73-1.12-1.12 0-0.12 0.14-0.17 0.26-0.17 0.47 0 0.95 0.07 1.42 0.07 0.53 0 1.02-0.07 1.36-0.07 0.14 0 0.24 0.04 0.24 0.14 0 0.26-0.9 0.23-0.9 0.74v2.83l2.38-2.19c0.43-0.4 0.55-0.59 0.55-0.85 0-0.41-0.6-0.31-0.6-0.52 0-0.05 0.07-0.1 0.19-0.1 0.86 0 1.8-0.05 2.49-0.05 0.21 0 0.28 0.05 0.28 0.14 0 0.23-0.59 0.02-1.54 0.88l-2.28 2.04L92.71 72.47zM101.83 70.93c0 2.49 1.81 1.59 1.81 2.18 0 0.12-0.07 0.21-0.5 0.21 -0.59 0-0.85-0.07-1.87-0.07 -0.81 0-1.38 0.07-1.88 0.07 -0.1 0-0.28-0.05-0.28-0.21 0-0.47 1.35 0.07 1.35-1.85v-8.27c0-2.07-1.41-1.02-1.41-1.64 0-0.14 0.09-0.26 0.23-0.26 0.15 0 0.76 0.07 1.76 0.07 0.86 0 1.14-0.07 1.97-0.07 2.19 0 4.63 0.76 4.63 3.33 0 0.69-0.52 3.32-4.2 3.32 -0.17 0-1.17-0.09-1.17-0.4 0-0.12 0.09-0.16 0.17-0.16 0.14 0 0.5 0.11 1.12 0.11 1.76 0 2.8-0.85 2.8-2.4 0-2.09-1.61-3.19-3.59-3.19 -0.55 0-0.93 0-0.93 0.52V70.93zM111.02 72.19c0 0.92 1.33 0.66 1.33 0.97 0 0.09-0.05 0.16-0.24 0.16 -0.47 0-1-0.07-1.54-0.07 -0.55 0-1.16 0.07-1.67 0.07 -0.1 0-0.17-0.05-0.17-0.14 0-0.45 1.03-0.04 1.03-1.12v-5.13c0-1.35-1.24-0.85-1.24-1.23 0-0.17 0.14-0.22 0.33-0.22 0.37 0 0.85 0.07 1.47 0.07 0.93 0 1.57-0.07 2.14-0.07 2.24 0 2.88 1.12 2.88 2.09 0 1.28-0.98 1.6-1.69 1.83l2.07 2.78c0.36 0.48 0.6 0.57 0.98 0.57 0.29 0 0.38 0.03 0.38 0.17 0 0.19-0.22 0.33-0.57 0.33h-0.98c-0.24 0-0.59-0.05-0.88-0.47l-1.59-2.26c-0.54-0.79-0.66-0.86-1.07-0.86h-0.97V72.19zM111.02 69.17h1.21c1.28 0 1.85-0.47 1.85-1.45 0-1.6-1.66-1.76-2.3-1.76 -0.5 0-0.76 0.17-0.76 0.73V69.17zM120.14 72.04c0 0.52 0.4 0.69 1.35 0.69 2.35 0 2.73-1.28 2.95-1.28 0.09 0 0.12 0.09 0.12 0.19 0 0.21-0.2 0.93-0.71 1.35 -0.31 0.26-0.57 0.33-1.33 0.33 -0.64 0-1.3-0.07-2.12-0.07 -0.81 0-1.71 0.07-2.3 0.07 -0.17 0-0.33-0.05-0.33-0.15 0-0.38 1.1 0 1.1-1.09v-5.34c0-1-1.16-0.72-1.16-1.09 0-0.12 0.1-0.17 0.28-0.17 0.71 0 1.81 0.07 2.88 0.07 1.21 0 2.73-0.07 2.94-0.07 0.1 0 0.17 0.1 0.17 0.17 0 0.21-0.02 0.49-0.02 1.5 0 0.21-0.07 0.27-0.19 0.27 -0.14 0-0.19-0.29-0.22-0.5 -0.1-0.62-0.74-0.86-2.06-0.86 -0.9 0-1.36 0-1.36 0.5v2.33h1.59c1.25 0 0.94-1 1.31-1 0.12 0 0.19 0.09 0.19 0.19 0 0.21-0.05 0.55-0.05 0.92 0 0.53 0.04 1.02 0.04 1.47 0 0.19-0.07 0.26-0.23 0.26 -0.33 0-0.04-1.19-1.23-1.19h-1.62V72.04zM129.82 65.63c0.35 0.12 0.6 0.22 0.76 0.22 0.4 0 0.26-0.24 0.42-0.24 0.07 0 0.1 0.07 0.1 0.19 0 0.24-0.04 0.68-0.04 1.04 0 0.29 0.04 0.92 0.04 1.18 0 0.16-0.1 0.19-0.17 0.19 -0.1 0-0.17-0.21-0.24-0.41 -0.21-0.61-0.66-1.9-2.16-1.9 -0.9 0-1.55 0.47-1.55 1.23 0 1.8 4.25 1.26 4.25 3.85 0 1.33-1.09 2.42-2.87 2.42 -0.85 0-1.42-0.12-2.06-0.45 -0.24-0.12-0.26-0.19-0.29-0.5 -0.05-0.53-0.33-1.41-0.33-1.76 0-0.14 0.09-0.24 0.21-0.24 0.15 0 0.22 0.1 0.33 0.47 0.21 0.71 1.05 2 2.37 2 0.93 0 1.68-0.48 1.68-1.41 0-1.94-4.25-1.36-4.25-3.85 0-1.1 0.9-2.23 2.52-2.23C129.02 65.4 129.46 65.51 129.82 65.63zM136.64 65.63c0.34 0.12 0.6 0.22 0.76 0.22 0.4 0 0.26-0.24 0.42-0.24 0.07 0 0.1 0.07 0.1 0.19 0 0.24-0.04 0.68-0.04 1.04 0 0.29 0.04 0.92 0.04 1.18 0 0.16-0.1 0.19-0.17 0.19 -0.1 0-0.17-0.21-0.24-0.41 -0.21-0.61-0.66-1.9-2.16-1.9 -0.9 0-1.55 0.47-1.55 1.23 0 1.8 4.25 1.26 4.25 3.85 0 1.33-1.09 2.42-2.87 2.42 -0.85 0-1.41-0.12-2.06-0.45 -0.24-0.12-0.26-0.19-0.29-0.5 -0.05-0.53-0.33-1.41-0.33-1.76 0-0.14 0.09-0.24 0.21-0.24 0.15 0 0.22 0.1 0.33 0.47 0.21 0.71 1.05 2 2.36 2 0.93 0 1.68-0.48 1.68-1.41 0-1.94-4.25-1.36-4.25-3.85 0-1.1 0.9-2.23 2.52-2.23C135.85 65.4 136.28 65.51 136.64 65.63z"/>
</svg>
