<svg xmlns="http://www.w3.org/2000/svg" xmlns:xlink="http://www.w3.org/1999/xlink" version="1.1" baseProfile="tiny" id="Layer_1" x="0" y="0" width="60" height="85" viewBox="0 0 60 85" overflow="auto" xml:space="preserve">
  <path fill="#644A3C" d="M44.43 10.28c3.37 0 6.16 2.79 6.16 6.16 0 2.38-1.39 4.53-3.42 5.52 -0.12 0-0.64 0.12-0.99-0.17 0-0.17 0.12-0.29 0.23-0.41l0.12-0.17c0.17-0.17 0.29-0.46-0.17-0.75 -0.12 0-0.29-0.12-0.41-0.17 -0.06-0.46-0.06-0.87-0.06-1.33 0.17-1.39 0.23-1.51-0.17-2.03 -0.41-0.23-0.58 0.06-0.76 0.35l-0.06 0.06v0.06c-0.29 0.23-0.75 0.35-1.05 0.52 -0.41 0.12-0.75 0.35-0.75 0.58 0.06 0.23 0.06 0.41 0 0.58 -0.06 0.17-0.06 0.41-0.06 0.64 0.23 0.23 0.41 0.52 0.35 0.7 -0.35 0.12-0.58 0.23-0.75 0.52 0.06 0.17 0.17 0.29 0.35 0.47l0.06 0.06c0.17 0.12 0.23 0.17 0.17 0.35 -0.12 0.23-0.99 0.23-1.28 0.23 -2.15-0.93-3.66-3.14-3.66-5.63C38.27 13.07 41.06 10.28 44.43 10.28zM49.3 21.95c1.57-1.28 2.56-3.25 2.56-5.52 0-4.12-3.37-7.49-7.49-7.49 -4.12 0-7.49 3.37-7.49 7.49 0 2.03 0.81 3.77 2.09 5.11 -0.81-0.17-1.8-0.11-2.5 1.11 -0.29-0.12-0.29-0.64-0.7-0.93 -0.23 0-0.41 0.17-0.58 0.23 -0.17 0.06-0.29 0.06-0.41-0.12 0-0.46-0.4-0.81-0.29-1.34 -0.35-0.23-0.52-0.52-0.7-0.81l-0.29-0.46c-0.11-0.17-0.23-0.29-0.35-0.46 -0.41-0.52-1.1-1.1-0.87-1.92 0-0.35-0.29-0.17-0.41-0.29 -0.35-0.06-0.52-0.23-0.7-0.46 -0.23-0.23-0.35-0.46-0.58-0.7 -0.35-0.52-0.7-0.93-0.93-1.34 -0.23-0.35-0.29-0.75-0.23-1.22 0.35-0.58 1.16-0.7 1.28-1.45 0.12-0.23 0.35-0.29 0.58-0.35l0.17-0.06c0.23-0.06 0.41-0.17 0.52-0.35 0.47-0.64 0.99-1.28 0.99-2.15 0-0.52 0.35-0.75 0.87-0.99 0.29-0.29 0-0.58-0.12-0.87 -0.64 0-0.99-0.41-1.51-0.52 -0.81-0.64-1.51-0.87-2.03-0.99 -0.12-0.06-0.23-0.12-0.35-0.12 -0.29-0.12-0.52-0.23-0.64-0.52 -0.58-0.35-0.58-1.51-1.16-1.51 -1.05-1.16-1.63-1.74-3.19-2.26 -0.17 0-0.41 0-0.7-0.06 -0.46-0.06-1.63-0.35-2.03-0.12C20.44 1.34 20.5 0 19.28 0c-1.16 0.23-1.33 0.52-2.09 1.22 0 0.23 0.12 0.35 0.23 0.46 0.06 0.06 0.06 0.06 0.06 0.06 0.06 0.35-0.17 0.58-0.35 0.81 -0.12 0.35-0.06 0.7 0.7 1.22 0.06 0.06-0.06 0.18-0.12 0.23 -0.52 0.46-1.28 1.51-1.74 2.44 -0.46 0.93-0.64 1.74-0.29 1.98 -0.46 1.63-1.16 4.36-1.16 4.36 0 0.17 0.06 0.29 0.17 0.41l0.12 0.06c0.06 0.06 0.12 0.12 0.12 0.35 -0.35 0.64-0.41 1.45-0.41 2.21 0 0.81 0 1.57 0 2.09 0.23 0.52 0.17 1.22 0.52 1.69 0.18 0.75 0.18 1.8 0.18 2.61 0.41 1.34 0.35 1.51 0.12 1.86 0 0.35 0.06 0.76 0.41 0.99 0 0.52-0.12 1.05-0.17 1.45 -0.12 0.35-0.23 0.81-0.12 1.16 -0.06 0.58 0.12 1.1 0.23 1.63 -0.17 0.58-0.12 1.05 0 1.39 0.12 0.23 0.23 0.47 0.41 0.76 0.12 0.75 0.81 1.1 1.05 1.8 0.17 0.58 0.76 1.04 0.58 1.68 -0.35 0.12-0.46 0.58-0.81 0.81 -0.23 0.23-0.52 0.06-0.87 0.35 0.12 1.04-1.04 0.41-1.57 1.04 -0.17 0.58-0.64 0.81-0.64 1.51 0.29 0.23 0.46 0.47 0.35 0.75 0.17 0.23 0.29 0.41 0.41 0.52 0.41 0.47 0.81 0.87 0.93 1.45 0 1.34 1.39 2.9 3.6 2.5 0.35-0.23 0.64-0.17 1.05-0.17 0.12 0 0.29 0 0.41-0.06 0.52-0.12 0.58-0.87 0.58-0.87 -0.17-0.58-0.64-0.29-0.87-0.52 -0.46-0.17-0.35-0.87-0.06-1.1 0.29 0.12 0.41 0.06 0.64 0.35 0.29-0.06 0.47-0.12 0.64-0.17 0.58-0.17 1.05-0.46 1.63-0.46 0.52-0.29 1.22-0.64 1.57-1.22l0.06-0.17c0.06-0.06 0.12-0.12 0.17-0.23 0.23-0.06 0.52 0 0.76 0.12 0.23 0.12 0.41 0.29 0.64 0.35 0.29 0.23 0.46 0.12 0.58-0.06 0.06-0.06 0.17-0.29 0.29-0.29 0.41 0 0.93 0.23 1.28 0.06 0.52 0 0.87 0.12 1.22 0.35 0.35 0.18 0.7 0.46 1.22 0.81 1.16-0.17 1.68 0.87 2.26 1.63 0.17 0.23 0.41 0.46 0.58 0.52 0.58 0.23 1.1 0.58 1.68 0.76 0 0 3.19-1.45 3.43-1.92 1.05-1.04 1.86-1.51 1.86-1.51 0.06-0.29 0.12-0.46 0.18-0.7 0.29-0.64 0.64-1.22 0.52-1.92 0 0-0.23-0.81-0.81-0.29 -0.99 0.87-1.51 1.1-1.92 1.1 -0.17 0-0.35-0.12-0.52-0.17 -0.17-0.12-0.35-0.23-0.64-0.35 -0.23-0.06-0.29-0.17-0.29-0.41 -0.06-0.23-0.06-0.46-0.23-0.64 -0.06-0.29 0.41-0.35 0.23-0.81 -0.58-0.35-0.52-1.04-0.93-1.51 -0.41-0.52-0.76-1.16-1.28-1.63 -0.4-0.41-0.11-1.16 0.23-1.74 0.35-0.64 0.46-1.28 0.52-1.86 0-0.52 0-1.16 0.17-1.62 0.81-0.23 1.05-0.52 1.1-0.87 0.06-0.29 0-0.64 0.17-0.87 0.23-0.29 0.47-0.64 0.75-0.87 0.52 0.18 1.28 0.06 1.8-0.29 0.23 0 0.41 0.12 0.52 0.29 0.17 0.23 0.35 0.47 0.52 0.64 0.87 0.41 1.92 0.47 3.02 0.47 1.1 0 2.21-0.12 3.08-0.12 0.41-0.06 0.87-0.06 1.28-0.12 0.41 0 0.76-0.17 0.99-0.46 0.46-0.23 0.64-0.64 0.76-1.04 0.17-0.46 0.29-0.81 0.81-1.05 0-0.12 0-0.12 0-0.23 0.18-0.23 0.35-0.52 0.06-0.7C50.29 22.13 49.83 21.95 49.3 21.95zM39.32 22.88c0.12 0.23 0.06 0.41-0.12 0.52 -0.23 0.35-0.52 0.41-0.81 0.23 -0.23-0.35-0.76-1.16 0.17-1.16C38.91 22.48 39.2 22.71 39.32 22.88zM42.8 16.78c0.75 0.52 1.63 0.29 2.09-0.58 0.35-0.64 0.06-0.93-0.29-1.16 -0.29-0.12-0.87-0.23-1.1-0.46 -0.29-0.29-0.64-0.46-0.87-0.41 -0.29 0.06-0.35 0.35-0.17 0.7C42.45 15.45 42.45 16.09 42.8 16.78z"/>
  <polygon fill="#644A3C" points="59.48 51.64 0 51.64 0 50.39 59.48 50.39 "/>
  <path fill="#644A3C" d="M26.6 65.48c0 0.83 0.07 1.33 1.03 1.31 3.16-0.07 2.66-1.55 3.39-1.57 0.06 0 0.27 0.05 0.27 0.31 0 1.04-0.78 2.13-1.88 2.13 -2.02 0-2.81-0.05-3.48-0.05 -0.42 0-0.97 0.05-1.7 0.05 -0.17 0-0.25-0.06-0.25-0.15 0-0.61 1.01 0.1 1.01-1.52v-6.29c0-1.13-1.01-0.77-1.01-1.24 0-0.12 0.14-0.22 0.42-0.22 0.54 0 0.81 0.05 1.32 0.05 1.13 0 1.29-0.05 1.5-0.05 0.28 0 0.35 0.01 0.35 0.17 0 0.5-0.94 0.01-0.94 1.02L26.6 65.48zM12.41 59.53l-2.94 8.07c-0.07 0.19-0.18 0.26-0.34 0.26 -0.17 0-0.3-0.11-0.41-0.4l-1.65-4.55c-0.03-0.06-0.06-0.09-0.11-0.09l-0.07 0.07 -0.07 0.14c0 0.01-2.16 4.63-2.16 4.61L4.69 67.6c-0.12 0.18-0.2 0.26-0.35 0.26 -0.18 0-0.31-0.11-0.41-0.4l-2.93-8.29c-0.23-0.63-0.92-0.39-0.92-0.73 0-0.16 0.19-0.21 0.28-0.21 0.22 0 0.48 0.05 1.31 0.05 1.17 0 1.37-0.05 1.58-0.05 0.13 0 0.31 0.02 0.31 0.17 0 0.41-0.75 0.26-0.75 0.74 0 0.12 0.05 0.33 0.16 0.66l1.68 5.02c0.07 0.2 0.11 0.37 0.19 0.37 0.08 0 0.12-0.07 0.15-0.12l0.01-0.04c0.02-0.03 1.33-2.79 1.4-2.95L6.52 61.74l0.05-0.15c0-0.14-0.07-0.28-0.14-0.49l-0.67-1.92c-0.23-0.63-0.91-0.39-0.91-0.73 0-0.16 0.19-0.21 0.28-0.21 0.21 0 0.48 0.05 1.3 0.05 1.17 0 1.37-0.05 1.58-0.05 0.12 0 0.31 0.02 0.31 0.17 0 0.41-0.75 0.26-0.75 0.74 0 0.12 0.06 0.33 0.17 0.66l1.46 4.45c0.13 0.37 0.19 0.72 0.32 0.72 0.05 0 0.34-0.82 0.34-0.82s1.17-3.42 1.26-3.65c0.08-0.23 0.12-0.97 0.12-0.97 0-0.49-0.3-0.6-0.73-0.7 -0.23-0.05-0.49-0.11-0.49-0.36h0.01c0-0.16 0.06-0.25 0.33-0.25h0.13c0.15 0 0.67 0.05 1.09 0.05 0.88 0 1.09-0.05 1.36-0.05h0.15c0.1 0 0.24 0.01 0.24 0.16 0 0.32-0.51 0.05-0.84 0.94L12.41 59.53zM17.82 63.48h-1.18l-0.1 0.01c-0.24 0-0.43 0.01-0.43-0.12 0-0.18 0.08-0.33 0.15-0.49l0.03-0.11c0.03-0.06 0.65-1.48 0.77-1.76l0.05-0.09c0.07-0.15 0.12-0.16 0.15-0.16 0.07 0 0.02 0 0.11 0.11l0.92 2.02c0.07 0.16 0.15 0.31 0.15 0.49 0 0.13-0.19 0.12-0.43 0.12L17.82 63.48zM13.1 67.65c0.38 0 0.77-0.05 1.17-0.05 0.42 0 0.82 0.05 1.25 0.05 0.28 0 0.69 0.09 0.69-0.19 0-0.36-1.25-0.15-1.25-1.1 0-0.32 0.14-0.66 0.24-0.92l0.03-0.07c0.28-0.81 0.5-0.81 0.64-0.81h2.44l0.18 0.01c0.35 0 0.41-0.05 0.85 0.98 0.15 0.36 0.25 0.6 0.25 0.89 0 0.81-0.94 0.67-0.94 1.05 0 0.19 0.17 0.16 0.41 0.16 0.39 0 0.88-0.05 1.47-0.05 0.88 0 1.24 0.05 1.71 0.05 0.36 0 0.48 0.03 0.48-0.2 0-0.44-0.72 0.08-1.15-0.86l-3.55-8.07 -0.04-0.07c-0.17-0.4-0.29-0.43-0.41-0.43 -0.17 0-0.36 0.25-0.46 0.47L13.5 66.53c-0.33 0.75-0.97 0.67-0.97 0.97 0 0.18 0.22 0.15 0.4 0.15H13.1L13.1 67.65zM37.41 61.88c-0.08 0.07-0.29 0.27-0.29 0.39 0 0.12-0.01 0.16 0.19 0.42l2.54 3.42c1.04 1.41 1.63 1.04 1.63 1.37 0 0.1-0.01 0.17-0.18 0.17 -0.29 0-0.63-0.05-1-0.05 -0.25 0-0.52 0.05-0.89 0.05 -0.25 0-0.38-0.03-0.65-0.39l-2.65-3.63c-0.17-0.23-0.28-0.15-0.35-0.15 -0.11 0-0.31 0.34-0.6 0.68 -0.19 0.23-0.17 0.35-0.17 0.65v1.4c0 1.22 1.3 0.8 1.3 1.28 0 0.12-0.05 0.16-0.37 0.16 -0.35 0-0.71-0.05-1.48-0.05 -0.63 0-1.33 0.05-1.74 0.05 -0.26 0-0.41-0.01-0.41-0.11 0-0.66 1.06 0.2 1.06-1.81v-5.79c0-1.6-1.06-0.93-1.06-1.52 0-0.14 0.11-0.19 0.26-0.19 0.26 0 0.36 0.05 1.27 0.05 0.75 0 1.58-0.05 1.85-0.05 0.11 0 0.28 0 0.28 0.16 0 0.53-0.96-0.19-0.96 1.28v2.78c0 0.13-0.01 0.32 0.07 0.31 0.08 0.01 0.16-0.05 0.33-0.22l1.54-1.5c0.38-0.37 1.68-1.42 1.68-2.01 0-0.41-0.61-0.22-0.61-0.53 0-0.24 0.13-0.25 0.31-0.25 0.13 0 1.05 0.05 1.45 0.05 0.34 0 0.68-0.05 1.26-0.05 0.11 0 0.34-0.01 0.34 0.22 0 0.36-0.23 0.03-1.51 1.21L37.41 61.88zM45.43 61.46c0 0.57 0 0.67 0.57 0.67h0.84c1.15 0 1.18-1.04 1.45-1.04 0.09 0 0.24-0.02 0.25 0.34l0.09 2.37c0.02 0.17 0.09 0.65-0.22 0.65 -0.43 0-0.06-1.24-1.44-1.24h-0.98c-0.61 0-0.56 0.16-0.56 0.93v1.34c0 0.83-0.06 1.31 0.9 1.31 3.3 0 3.11-1.56 3.62-1.56 0.05 0 0.15 0.04 0.15 0.29 0 1.04-0.79 2.13-1.87 2.13 -2.02 0-2.82-0.05-3.49-0.05 -0.41 0-0.97 0.05-1.7 0.05 -0.18 0-0.25-0.06-0.25-0.15 0-0.61 1.01 0.1 1.01-1.52v-6.23c0-1.19-1.01-0.77-1.01-1.3 0-0.12 0.1-0.22 0.29-0.22 0.55 0 1.01 0.05 3.05 0.05 0.94 0 1.86-0.05 3.03-0.05 0.17 0 0.27 0.13 0.27 0.25l0.05 1.32c0.01 0.18 0.08 0.62-0.23 0.62 -0.62 0 0.41-1.37-2.15-1.37 -1.61 0-1.66 0.01-1.66 0.93v1.49H45.43zM53.75 59.59c0-0.61 0.41-0.61 0.91-0.61 1.34 0 2.11 0.81 2.09 2.11 -0.01 0.65-0.24 1.43-2.12 1.41 -0.39-0.01-0.87 0.12-0.87-0.4V59.59zM52.11 65.76c0 1.68-1.08 1.24-1.08 1.66 0 0.27 0.28 0.23 0.43 0.23 0.66 0 1.34-0.05 2.05-0.05 0.56 0 0.92 0.05 1.15 0.05 0.3 0 0.41-0.08 0.41-0.2 0-0.48-1.32 0.06-1.32-1.36v-2.1c0-0.46-0.08-0.56 0.62-0.56 0.67 0 0.98 0.08 1.28 0.66L56.7 66.04c0.41 0.77 0.84 1.61 1.89 1.61 0.53 0 1.41-0.29 1.41-0.71 0-0.1-0.08-0.19-0.2-0.19 -0.13 0-0.27 0.08-0.4 0.08 -0.1 0-0.35 0-0.48-0.21 -0.95-1.68-2.08-3.61-2.08-3.68 0-0.13 0.38-0.25 0.76-0.56 0.39-0.32 0.78-0.82 0.78-1.67 0-0.61-0.26-2.49-3.18-2.49 -0.89 0-1.8 0.05-2.69 0.05 -0.84 0-0.57-0.05-1.18-0.05 -0.16 0-0.29 0.06-0.29 0.2 0 0.48 1.08-0.01 1.08 1.48V65.76L52.11 65.76zM42.31 76.47c-0.08 0.07-0.29 0.27-0.29 0.39 0 0.12 0 0.15 0.2 0.42l2.54 3.42c1.04 1.41 1.62 1.04 1.62 1.37 0 0.09-0.01 0.17-0.18 0.17 -0.29 0-0.63-0.06-0.99-0.06 -0.25 0-0.52 0.06-0.89 0.06 -0.25 0-0.39-0.03-0.65-0.39l-2.64-3.63c-0.18-0.23-0.28-0.15-0.36-0.15 -0.11 0-0.31 0.34-0.6 0.68 -0.2 0.23-0.17 0.35-0.17 0.65v1.41c0 1.23 1.3 0.8 1.3 1.28 0 0.12-0.05 0.16-0.37 0.16 -0.36 0-0.72-0.06-1.48-0.06 -0.64 0-1.33 0.06-1.74 0.06 -0.25 0-0.41-0.02-0.41-0.1 0-0.67 1.06 0.2 1.06-1.81v-5.79c0-1.61-1.06-0.93-1.06-1.51 0-0.15 0.11-0.2 0.27-0.2 0.25 0 0.36 0.06 1.26 0.06 0.74 0 1.58-0.06 1.85-0.06 0.13 0 0.28 0 0.28 0.16 0 0.53-0.96-0.19-0.96 1.27v2.79c0 0.13-0.01 0.32 0.07 0.31 0.08 0.01 0.16-0.05 0.33-0.22l1.54-1.5c0.38-0.37 1.68-1.42 1.68-2.01 0-0.41-0.62-0.22-0.62-0.53 0-0.24 0.13-0.25 0.31-0.25 0.13 0 1.05 0.06 1.45 0.06 0.34 0 0.68-0.06 1.25-0.06 0.11 0 0.35-0.01 0.35 0.23 0 0.36-0.23 0.03-1.52 1.21L42.31 76.47zM7.22 80.65c0 1.29-1.14 0.94-1.14 1.38 0 0.19 0.13 0.21 0.44 0.21 0.28 0 0.63-0.06 0.95-0.06 0.67 0 1.33 0.06 3.31 0.06 2.17 0 3.39-1.15 3.39-2.9 0-1.2-0.51-1.91-2.13-2.33V76.98c0.95-0.3 1.45-1.04 1.45-1.87 0-0.32-0.02-2.29-3.27-2.29 -1.12 0-2.25 0.05-3.38 0.05 -0.61 0-0.44-0.05-0.54-0.05 -0.06 0-0.22-0.01-0.22 0.2 0 0.65 1.14-0.08 1.14 1.75L7.22 80.65 7.22 80.65zM8.86 74.83c0-0.76 0.03-1.26 0.94-1.26 1.19 0 2.11 0.67 2.11 1.89 0 0.75-0.32 1.32-1.34 1.32H9.76c-0.77-0.05-0.9-0.1-0.9-0.76L8.86 74.83 8.86 74.83zM8.86 78.76c0-0.69 0.03-1.02 0.82-1.02 2.42 0 2.73 1.04 2.73 1.84 0 1.29-0.6 1.94-1.91 1.94 -1.28 0-1.64-0.37-1.64-1.64L8.86 78.76 8.86 78.76zM17.19 77.08c0-1.93 0.69-3.63 2.93-3.66 1.71-0.03 3.32 1.38 3.32 4.32 0 2.21-0.75 3.84-3.04 3.87C18.02 81.64 17.19 79.02 17.19 77.08zM15.55 77.83c0 2.7 1.8 4.5 4.47 4.5 4.25 0 5.06-3.26 5.06-5.12 0-2.82-1.98-4.54-4.57-4.51C17.32 72.72 15.55 74.92 15.55 77.83zM28.33 77.08c0-1.93 0.69-3.63 2.94-3.66 1.72-0.03 3.31 1.38 3.31 4.32 0 2.21-0.75 3.84-3.04 3.87C29.16 81.64 28.33 79.02 28.33 77.08zM26.7 77.83c0 2.7 1.8 4.5 4.47 4.5 4.25 0 5.05-3.26 5.05-5.12 0-2.82-1.98-4.54-4.57-4.51C28.47 72.72 26.7 74.92 26.7 77.83zM47.63 79.51c-0.04-0.18-0.17-0.57 0.17-0.57 0.21 0 0.24 0.12 0.29 0.29 0.42 1.28 1.12 2.31 2.59 2.31 1.04 0 1.79-0.52 1.79-1.59 0-1.13-0.66-1.24-2.8-2.18 -1.14-0.51-1.93-1.03-1.93-2.42 0-1.53 1.06-2.64 2.62-2.64 1.09 0 1.65 0.52 2.05 0.52 0.17 0 0.5-0.21 0.68-0.21 0.2 0 0.16 0.2 0.19 0.5l0.15 1.79c0.03 0.29-0.01 0.45-0.31 0.45 -0.31 0-0.47-2.27-2.76-2.27 -0.87 0-1.35 0.42-1.35 1.31 0 0.89 0.57 0.96 2.36 1.74 1.43 0.63 2.3 1.19 2.3 2.89 0 1.74-1.23 2.93-2.96 2.93 -0.81 0-1.49-0.32-2.26-0.49 -0.33-0.08-0.32-0.19-0.39-0.5L47.63 79.51z"/>
</svg>
